<?xml version="1.0" encoding="UTF-8" standalone="no"?>
<svg viewBox="0 0 512 593.55859" version="1.1" id="svg12" sodipodi:docname="GRAC_19_(19청소년이용불가).svg" inkscape:version="1.4 (e7c3feb100, 2024-10-09)" width="512" height="593.55859" xmlns:inkscape="http://www.inkscape.org/namespaces/inkscape" xmlns:sodipodi="http://sodipodi.sourceforge.net/DTD/sodipodi-0.dtd" xmlns="http://www.w3.org/2000/svg" xmlns:svg="http://www.w3.org/2000/svg">
  <defs id="defs1"/>
  <sodipodi:namedview id="namedview1" pagecolor="#ffffff" bordercolor="#000000" borderopacity="0.25" inkscape:showpageshadow="2" inkscape:pageopacity="0.0" inkscape:pagecheckerboard="0" inkscape:deskcolor="#d1d1d1" inkscape:zoom="1.1898721" inkscape:cx="169.76614" inkscape:cy="197.08" inkscape:window-width="1280" inkscape:window-height="729" inkscape:window-x="0" inkscape:window-y="0" inkscape:window-maximized="1" inkscape:current-layer="svg12"/>
  <path d="M 484.80997,511.4488 H 15.373871 V 16.992208 H 484.80997 Z m 0,0" style="fill:#a31639;fill-opacity:1;fill-rule:nonzero;stroke:none;stroke-width:4.53096" id="path2"/>
  <path d="M 228.97693,62.959797 C 179.3233,126.39481 114.2059,130.64607 105.15111,130.81304 v 57.79662 c 0,0 5.67691,0.10285 46.2372,0.21838 26.61209,0.077 26.25247,26.52225 26.25247,26.52225 V 479.80193 H 490.28135 V 62.959813 Z m 0,0" style="fill:#9ca3ab;fill-opacity:1;fill-rule:nonzero;stroke:none;stroke-width:4.53096" id="path4"/>
  <path d="m 386.88983,188.96928 c 0,-13.92255 1.32289,-23.4269 3.99437,-28.513 2.67148,-5.09895 7.83464,-7.64199 15.48946,-7.64199 7.82183,0 13.10056,2.37607 15.88763,7.10256 2.7614,4.73932 4.16134,14.42347 4.16134,29.05243 v 29.72032 c 0,15.36105 -1.34857,25.48189 -4.02005,30.41387 -2.67149,4.89344 -7.83463,7.35945 -15.46378,7.35945 -7.25668,0 -12.43267,-2.50452 -15.48946,-7.51357 -3.04397,-4.98337 -4.55951,-13.99966 -4.55951,-27.03599 z m 94.41381,-91.190232 c -19.35542,-7.423652 -44.63176,-11.148326 -75.80331,-11.148326 -43.93822,0 -76.94645,9.298846 -99.02472,27.870828 -22.06541,18.59766 -33.11096,46.49417 -33.11096,83.66382 0,21.5132 3.57052,39.25034 10.71162,53.21145 7.10254,13.97393 23.23419,32.09638 41.49789,40.3035 0,0 8.75939,5.02189 23.16997,8.29703 7.34658,2.53022 30.31106,8.3484 79.60507,5.90811 0.077,41.12549 0.19271,136.14316 -0.0387,139.2128 -0.2954,3.89163 -2.2091,7.53926 -5.77964,10.91713 -3.57055,3.36507 -8.27134,5.06043 -14.03817,5.06043 -12.54823,0 -19.89482,-5.86956 -22.0397,-17.59585 -2.10637,-11.76484 -3.18524,-31.5955 -3.18524,-59.53055 V 357.00335 H 273.82701 v 23.43974 c 0,40.13657 4.75216,69.81832 14.25649,88.99397 1.82378,3.66046 3.2109,5.62554 5.48423,8.93921 l 157.15513,-0.59085 13.43447,-4.91915 12.27856,-11.84188 5.35581,-10.82722 z m 0,0" style="fill:#ffffff;fill-opacity:1;fill-rule:nonzero;stroke:none;stroke-width:4.53096" id="path6"/>
  <path d="m 480.22477,446.17714 a 27.292795,27.292853 0 0 1 -27.20289,27.38273 H 58.95244 A 27.292795,27.292853 0 0 1 31.775237,446.17714 V 58.066352 c 0,-15.129878 12.175796,-27.395608 27.177203,-27.395608 h 394.06944 c 15.02711,0 27.20289,12.26573 27.20289,27.395608 z M 475.75517,0 H 36.244832 C 18.726069,0 0,18.880232 0,36.52747 v 520.51642 c 0,17.64729 18.726069,36.5147 36.244832,36.5147 H 475.75517 C 493.27395,593.55859 512,574.67826 512,557.04389 V 36.52747 C 512,18.880232 493.27395,0 475.75517,0" style="fill:#231f20;fill-opacity:1;fill-rule:nonzero;stroke:none;stroke-width:4.53096" id="path8"/>
  <path d="m 90.124029,537.00775 h -9.555695 v -13.01067 h -10.90428 v -7.23099 h 10.90428 v -17.58305 h 9.555695 z m -35.666875,11.52077 c -2.491672,1.24585 -3.724664,2.7871 -3.724664,4.59808 0,1.79809 1.232992,3.31364 3.724664,4.55949 2.78708,1.42565 6.601648,2.13204 11.469397,2.13204 4.944817,0 8.836442,-0.70636 11.662046,-2.13204 2.555894,-1.24585 3.827425,-2.7614 3.827425,-4.55949 0,-1.81098 -1.284376,-3.35223 -3.827425,-4.59808 -2.825604,-1.37425 -6.717229,-2.06782 -11.662046,-2.06782 -4.867749,0 -8.682317,0.69354 -11.469397,2.06782 m 30.362433,-5.09893 c 4.13566,2.65865 6.19064,5.93379 6.19064,9.77406 -0.0387,3.82743 -2.119196,7.03833 -6.254863,9.6456 -4.598026,2.94121 -10.865741,4.43107 -18.828813,4.43107 -7.911697,0 -14.153724,-1.48986 -18.751755,-4.43107 -4.097131,-2.60727 -6.126432,-5.81817 -6.126432,-9.6456 0,-3.85311 2.029301,-7.11541 6.113587,-9.76122 4.649409,-2.95406 10.917115,-4.41823 18.7646,-4.41823 8.001605,0 14.282163,1.47703 18.880185,4.40539 M 50.73249,504.15358 v -5.30445 h 9.542846 v 5.30445 h 12.907885 v 7.23098 H 60.262496 c 0,4.26413 1.438485,8.21997 4.302627,11.77767 2.671483,3.33937 6.357615,6.1136 11.045558,8.27133 l -4.2641,5.57419 a 37.824605,37.824682 0 0 1 -9.671279,-5.70259 c -3.005428,-2.4917 -5.137473,-4.93201 -6.383309,-7.37229 -1.322897,2.44028 -3.519166,4.88059 -6.588802,7.37229 -3.082481,2.51733 -6.37046,4.4439 -9.851092,5.77965 l -3.544855,-5.50995 c 4.431065,-2.2091 8.014451,-4.99619 10.762996,-8.3484 3.095323,-3.69899 4.649408,-7.65484 4.649408,-11.8419 H 37.824605 v -7.23098 z m 73.59422,49.25558 v -18.37935 h 9.50431 v 18.37935 h 23.25989 v 7.24384 h -55.83143 v -7.24384 z m 16.51697,-32.10925 c 3.8274,4.41824 9.44008,7.89886 16.8252,10.46763 l -4.23841,5.8824 a 63.396341,63.396474 0 0 1 -14.84728,-7.32091 34.421031,34.421103 0 0 1 -9.59423,-10.04377 c -2.18343,3.8531 -5.30443,7.19247 -9.33735,10.0566 -3.87878,2.69718 -8.86213,5.13747 -14.97571,7.30808 l -3.81458,-5.8824 c 7.06402,-2.56877 12.4969,-6.08795 16.33716,-10.53186 4.76499,-5.54848 7.14107,-12.71525 7.14107,-21.50034 h 9.47863 c 0,8.91353 2.36324,16.10602 7.0255,21.5774 m 39.6484,36.02656 h 38.76219 v 7.44936 h -39.82822 c -3.05679,0 -5.24022,-0.57802 -6.57596,-1.72106 -1.25868,-1.15594 -1.88802,-3.01827 -1.88802,-5.58702 v -14.05099 h 9.54285 z m 28.76982,-33.29086 h -17.53162 v -7.50071 h 17.54446 v -5.16317 h -17.21053 v -7.44933 h 17.21053 v -4.75219 h 9.54284 v 47.97123 h -9.54284 v -10.05663 h -34.7036 c -2.31186,0 -4.04575,-0.73212 -5.15031,-2.14489 -1.05318,-1.27152 -1.54124,-3.13385 -1.54124,-5.52279 v -29.68179 h 9.51716 v 29.97719 h 31.87799 z m 73.88961,41.43378 h -9.54284 v -66.29918 h 9.54284 z m -40.81718,-52.58209 c -1.25868,4.1742 -1.87517,9.58138 -1.87517,16.1959 0,7.16678 0.61652,12.92075 1.87517,17.28762 1.38713,4.67508 3.33937,7.02551 5.93378,7.02551 2.5302,0 4.49528,-2.35043 5.85671,-7.02551 1.31005,-4.36687 1.93941,-10.12084 1.93941,-17.28762 0,-6.61452 -0.6422,-12.0217 -1.93941,-16.18304 -1.41279,-4.55953 -3.36503,-6.82001 -5.85671,-6.82001 -2.55589,0 -4.52096,2.26048 -5.93378,6.80715 m 19.02149,-4.95767 c 2.92837,5.56131 4.36683,12.63819 4.36683,21.20493 0,9.10619 -1.43846,16.51702 -4.36683,22.19392 -3.08249,6.21633 -7.44934,9.31169 -13.0235,9.31169 -5.6512,0 -10.0309,-3.09536 -13.16476,-9.31169 -2.86411,-5.6769 -4.30262,-13.10057 -4.30262,-22.19392 0,-8.56674 1.43851,-15.64362 4.30262,-21.19208 3.18525,-6.07507 7.57778,-9.10618 13.16476,-9.10618 5.54848,0 9.88964,3.03111 13.0235,9.09333 m 68.59802,21.98841 v -4.2641 a 46.725266,46.725362 0 0 1 -7.73188,0.60368 c -1.54124,0 -2.91551,-0.0387 -4.10998,-0.1414 -1.38711,-0.12846 -2.62011,-0.30826 -3.76318,-0.46238 v 4.26411 z m -18.75175,20.65265 c -2.42746,1.01465 -3.60905,2.24767 -3.60905,3.72467 0,1.46418 1.18162,2.72289 3.60905,3.72468 2.69717,1.13024 6.37046,1.72107 11.03271,1.72107 4.49527,0 8.0915,-0.59077 10.75015,-1.72107 2.4403,-1.00181 3.67332,-2.2605 3.67332,-3.72468 0,-1.477 -1.22017,-2.71 -3.67332,-3.72467 -2.67149,-1.0917 -6.25488,-1.64397 -10.75015,-1.64397 -4.66225,0 -8.32271,0.55225 -11.03271,1.64397 m -0.33397,-42.29429 c -2.47883,1.10457 -3.72465,2.53022 -3.72465,4.27697 0,1.66969 1.24583,3.09532 3.72465,4.19989 2.72286,1.19446 6.46037,1.78527 11.22537,1.78527 4.77785,0 8.54104,-0.59085 11.28959,-1.79813 2.49166,-1.09171 3.72466,-2.50451 3.72466,-4.18703 0,-1.74675 -1.23298,-3.1724 -3.72466,-4.27697 -2.74855,-1.15593 -6.51174,-1.72104 -11.30243,-1.72104 -4.75216,0 -8.47683,0.56505 -11.21253,1.72104 m 29.34779,37.05408 c 4.03289,2.44029 6.06219,5.45856 6.06219,9.02912 0,3.50631 -2.0293,6.46037 -6.0622,8.90068 -4.48246,2.69716 -10.50612,4.05859 -18.05821,4.05859 -7.6163,0 -13.63997,-1.34857 -18.12241,-4.05859 -3.98155,-2.44031 -5.99799,-5.39437 -5.99799,-8.90068 0,-3.57056 2.01644,-6.58883 5.99799,-9.02912 4.48244,-2.6972 10.50611,-4.04577 18.12241,-4.04577 7.55209,0 13.57575,1.33575 18.05821,4.04577 M 299.129,518.14034 a 9.5043149,9.5043348 0 0 1 -1.84947,-5.57414 c 0,-3.82744 2.05499,-7.01267 6.16498,-9.58141 4.57233,-2.76141 10.81436,-4.13566 18.79028,-4.13566 7.91169,0 14.15371,1.37425 18.75176,4.13566 4.16132,2.56874 6.25485,5.75397 6.25485,9.58141 0,1.96508 -0.64217,3.82742 -1.92655,5.57414 -1.38713,1.79814 -3.31367,3.36508 -5.80535,4.68795 v 7.10258 h 10.63456 v 7.50073 H 294.2998 v -7.50073 h 10.51895 v -7.10258 a 16.285771,16.285804 0 0 1 -5.68974,-4.68795 m 72.21997,-3.37787 h 30.45231 v -4.48246 h -30.45233 z m 0,-15.02713 v 3.18524 h 30.43947 v -3.18524 h 9.54285 v 22.47645 h -40.81718 c -3.06964,0 -5.29158,-0.64218 -6.7044,-1.87517 -1.33569,-1.22014 -2.00356,-3.13386 -2.00356,-5.71544 v -14.89867 z m 43.1547,32.26336 h -23.11861 v 4.68797 h 19.94623 v 17.55732 h -39.98234 v 3.03112 h 40.49608 v 7.52638 h -41.33092 c -2.85129,0 -5.00904,-0.6807 -6.51174,-2.0293 -1.477,-1.27153 -2.19627,-3.10817 -2.19627,-5.49708 v -10.48048 h 39.98234 v -2.67148 h -39.98231 v -7.43648 h 20.04897 v -4.68797 h -23.19566 v -7.39796 h 55.83141 z m 60.78911,-32.78995 v 26.85616 h 6.51171 v 7.57778 h -6.51171 v 31.85237 h -9.55568 v -66.28631 z m -21.39756,1.37428 v 20.53705 c 0,9.8126 -2.42745,18.0711 -7.24384,24.72411 -4.46958,6.10079 -11.10977,11.04559 -19.92052,14.80881 l -3.78889,-5.65125 c 6.43467,-2.95404 11.44371,-6.67871 15.02708,-11.23823 4.28979,-5.45857 6.43468,-12.04736 6.43468,-19.76644 v -15.90051 h -19.92047 v -7.50071 z m 0,0" style="fill:#ffffff;fill-opacity:1;fill-rule:nonzero;stroke:none;stroke-width:4.53096" id="path10"/>
</svg>