<?xml version="1.0" encoding="UTF-8" standalone="no"?>
<!-- Created with Inkscape (http://www.inkscape.org/) -->
<svg
   xmlnsSvg="http://www.w3.org/2000/svg"
   xmlns="http://www.w3.org/2000/svg"
   version="1.0"
   width="55.984253"
   height="55.984253"
   id="svg2">
  <defs
     id="defs4">
    <clipPath
       id="clipPath805">
      <rect
         width="55.984253"
         height="55.984253"
         rx="4.7834644"
         ry="4.7834644"
         x="7.4409447"
         y="7.4409447"
         id="rect807"
         style="fill:#fff200;fill-opacity:0.7;fill-rule:nonzero;stroke:none" />
    </clipPath>
    <clipPath
       id="clipPath811">
      <rect
         width="41.456692"
         height="41.456692"
         rx="4.7834644"
         ry="4.7834644"
         x="29.381582"
         y="-20.728346"
         id="rect813"
         style="fill:#fff200;fill-opacity:0.7;fill-rule:nonzero;stroke:none" />
    </clipPath>
  </defs>
  <g
     transform="translate(-7.4409447,-7.4409447)"
     id="layer1">
    <rect
       width="55.984253"
       height="55.984253"
       rx="4.7834644"
       ry="4.7834644"
       x="7.4409447"
       y="7.4409447"
       clip-path="url(#clipPath805)"
       id="rect12"
       style="fill:#33ff00;fill-opacity:0.7;fill-rule:nonzero;stroke:#33ff00;stroke-width:2;stroke-miterlimit:4;stroke-dasharray:none;stroke-opacity:1" />
  </g>
  <g
     transform="translate(-7.4409447,-7.4409447)"
     id="layer2">
    <rect
       width="41.456692"
       height="41.456692"
       rx="4.7834644"
       ry="4.7834644"
       x="29.381582"
       y="-20.728346"
       transform="matrix(0.5361854,0.5345272,-0.5361854,0.5345272,8.5648594,8.6479517)"
       clip-path="url(#clipPath811)"
       id="rect796"
       style="fill:#33ff00;fill-opacity:1;fill-rule:nonzero;stroke:#000000;stroke-width:1.25;stroke-linecap:butt;stroke-linejoin:miter;stroke-miterlimit:4;stroke-dasharray:none;stroke-dashoffset:0;stroke-opacity:1" />
  </g>
  <g
     transform="translate(-7.4409447,-7.4409447)"
     id="layer3">
    <path
       d="M 29.111977,21.342567 L 30.008071,21.342567 L 30.008071,23.746278 C 30.00807,24.127725 30.01917,24.374958 30.041372,24.487977 C 30.079717,24.669619 30.171042,24.815436 30.315346,24.925428 C 30.459648,25.035423 30.65693,25.090419 30.907192,25.090419 C 31.161487,25.090419 31.353218,25.03845 31.482387,24.93451 C 31.611551,24.830573 31.689253,24.70292 31.715493,24.551551 C 31.741727,24.400186 31.754845,24.148916 31.754848,23.797743 L 31.754848,21.342567 L 32.650942,21.342567 L 32.650942,23.673622 C 32.650938,24.206436 32.626719,24.582835 32.578286,24.802821 C 32.529844,25.022809 32.440538,25.208486 32.310366,25.359852 C 32.180187,25.51122 32.006115,25.631809 31.788149,25.72162 C 31.570178,25.811431 31.285607,25.856337 30.934438,25.856337 C 30.510608,25.856337 30.189206,25.807395 29.970229,25.70951 C 29.75125,25.611626 29.578187,25.484478 29.45104,25.328065 C 29.323891,25.171653 29.240134,25.007672 29.19977,24.836122 C 29.141241,24.581826 29.111977,24.206436 29.111977,23.70995 L 29.111977,21.342567 z M 33.37145,24.33661 L 34.243325,24.251844 C 34.295798,24.544489 34.402259,24.75943 34.56271,24.896669 C 34.723157,25.033909 34.939612,25.102529 35.212075,25.102528 C 35.500679,25.102529 35.718143,25.041477 35.864468,24.919374 C 36.010786,24.797272 36.083947,24.654482 36.08395,24.491005 C 36.083947,24.386058 36.053169,24.296752 35.991616,24.223085 C 35.930057,24.149421 35.822587,24.085342 35.669204,24.030848 C 35.564254,23.994522 35.325094,23.929939 34.951723,23.837098 C 34.471384,23.718025 34.13434,23.571703 33.940591,23.398134 C 33.668129,23.15393 33.531899,22.856242 33.531899,22.505067 C 33.531899,22.279029 33.595978,22.06762 33.724136,21.870839 C 33.852292,21.674065 34.03696,21.524212 34.278139,21.421278 C 34.519316,21.318353 34.810446,21.266888 35.151528,21.266884 C 35.708557,21.266888 36.127843,21.388991 36.409389,21.633192 C 36.690929,21.877402 36.838764,22.203345 36.852895,22.611024 L 35.956802,22.65038 C 35.918452,22.422323 35.83621,22.258342 35.710073,22.158436 C 35.583931,22.058538 35.394722,22.008587 35.142446,22.008583 C 34.882093,22.008587 34.678252,22.06207 34.530923,22.169032 C 34.436065,22.237655 34.388636,22.329485 34.388638,22.44452 C 34.388636,22.549471 34.433037,22.639283 34.521841,22.713954 C 34.63486,22.808814 34.909339,22.907707 35.345278,23.010634 C 35.781213,23.113566 36.103625,23.220027 36.312514,23.330018 C 36.521398,23.440014 36.684874,23.590372 36.802944,23.781093 C 36.921007,23.971817 36.98004,24.207445 36.980044,24.487977 C 36.98004,24.742275 36.909402,24.980426 36.76813,25.20243 C 36.62685,25.424436 36.427046,25.589426 36.168716,25.697401 C 35.910379,25.805376 35.588472,25.859364 35.202993,25.859364 C 34.641924,25.859364 34.211032,25.729693 33.910317,25.47035 C 33.609601,25.211008 33.429978,24.833095 33.37145,24.33661 L 33.37145,24.33661 z M 37.752016,25.780653 L 37.752016,21.342567 L 38.64811,21.342567 L 38.64811,23.313368 L 40.458461,21.342567 L 41.663344,21.342567 L 39.992251,23.07118 L 41.754165,25.780653 L 40.594692,25.780653 L 39.374672,23.697841 L 38.64811,24.43954 L 38.64811,25.780653 L 37.752016,25.780653 z"
       id="text816"
       style="font-size:6.19999981px;font-style:normal;font-variant:normal;font-weight:bold;font-stretch:normal;text-indent:0;text-align:start;text-decoration:none;line-height:125%;letter-spacing:normal;word-spacing:normal;text-transform:none;direction:ltr;block-progression:tb;writing-mode:lr-tb;text-anchor:start;fill:#000000;fill-opacity:1;fill-rule:nonzero;stroke:none;stroke-width:0.99999994px;marker:none;visibility:visible;display:inline;overflow:visible;enable-background:accumulate;font-family:Arial;-inkscape-font-specification:Arial Bold" />
    <path
       d="M 33.719643,28.279008 L 33.196694,28.184672 C 33.255483,27.974127 33.356655,27.818268 33.50021,27.717094 C 33.643764,27.615924 33.857045,27.565338 34.140054,27.565336 C 34.397083,27.565338 34.588489,27.595758 34.714272,27.656596 C 34.840052,27.717438 34.928577,27.794684 34.979848,27.888334 C 35.031116,27.981988 35.056751,28.153912 35.056753,28.404105 L 35.0506,29.076762 C 35.050598,29.268168 35.059827,29.40933 35.078286,29.500248 C 35.096741,29.591166 35.131262,29.688578 35.18185,29.792484 L 34.611733,29.792484 C 34.596693,29.754203 34.578235,29.697465 34.556362,29.622269 C 34.54679,29.58809 34.539954,29.565531 34.535854,29.554594 C 34.437415,29.650297 34.332142,29.722074 34.220034,29.769926 C 34.107923,29.817777 33.988295,29.841703 33.861147,29.841703 C 33.636928,29.841703 33.460219,29.780863 33.33102,29.659184 C 33.201821,29.537504 33.137221,29.383696 33.137222,29.197758 C 33.137221,29.074712 33.166616,28.964995 33.225405,28.868607 C 33.284194,28.772222 33.366567,28.698394 33.472524,28.647123 C 33.578481,28.595855 33.731264,28.551079 33.930874,28.512797 C 34.200209,28.462212 34.386829,28.415044 34.490737,28.371293 L 34.490737,28.313871 C 34.490736,28.20313 34.463392,28.124175 34.408706,28.077006 C 34.354017,28.02984 34.250794,28.006256 34.099038,28.006254 C 33.996498,28.006256 33.916517,28.026422 33.859096,28.066752 C 33.801674,28.107086 33.755189,28.177838 33.719643,28.279008 L 33.719643,28.279008 z M 34.490737,28.746586 C 34.416908,28.771196 34.300013,28.800591 34.140054,28.834769 C 33.980092,28.86895 33.875502,28.902446 33.826284,28.935258 C 33.751088,28.988579 33.71349,29.056255 33.713491,29.138285 C 33.71349,29.21895 33.743568,29.288676 33.803725,29.347465 C 33.863881,29.406254 33.940443,29.435649 34.033413,29.435648 C 34.137318,29.435649 34.236439,29.401469 34.330776,29.333109 C 34.400501,29.281157 34.446302,29.217583 34.468178,29.142387 C 34.483216,29.093169 34.490736,28.999516 34.490737,28.86143 L 34.490737,28.746586 z M 35.602261,29.792484 L 35.602261,26.786039 L 36.17853,26.786039 L 36.17853,27.868852 C 36.356263,27.66651 36.56681,27.565338 36.810171,27.565336 C 37.075403,27.565338 37.294837,27.661383 37.468471,27.853471 C 37.642102,28.045562 37.728918,28.321392 37.728921,28.680961 C 37.728918,29.052837 37.640393,29.339262 37.463344,29.540238 C 37.286292,29.741215 37.071302,29.841703 36.818374,29.841703 C 36.693958,29.841703 36.571253,29.810599 36.450259,29.748392 C 36.329261,29.686186 36.225014,29.594242 36.137514,29.472562 L 36.137514,29.792484 L 35.602261,29.792484 z M 36.174429,28.656352 C 36.174428,28.881938 36.209975,29.048735 36.281069,29.156742 C 36.380873,29.309868 36.51349,29.38643 36.678921,29.38643 C 36.806068,29.38643 36.914417,29.332084 37.003969,29.223393 C 37.093519,29.114702 37.138294,28.943462 37.138296,28.709672 C 37.138294,28.460845 37.093177,28.281402 37.002944,28.171342 C 36.912708,28.061285 36.797181,28.006256 36.656362,28.006254 C 36.518275,28.006256 36.403431,28.059918 36.311831,28.16724 C 36.220228,28.274566 36.174428,28.437603 36.174429,28.656352 L 36.174429,28.656352 z"
       id="text2389"
       style="font-size:4.19999981px;font-style:normal;font-variant:normal;font-weight:bold;font-stretch:normal;text-indent:0;text-align:start;text-decoration:none;line-height:125%;letter-spacing:normal;word-spacing:normal;text-transform:none;direction:ltr;block-progression:tb;writing-mode:lr-tb;text-anchor:start;fill:#000000;fill-opacity:1;fill-rule:nonzero;stroke:none;stroke-width:0.99999994px;marker:none;visibility:visible;display:inline;overflow:visible;enable-background:accumulate;font-family:Arial;-inkscape-font-specification:Arial Bold" />
    <path
       d="M 32.263149,44.917854 L 29.519009,44.917854 L 29.519009,34.576057 C 28.5164,35.513567 27.334761,36.206926 25.974087,36.656136 L 25.974087,34.165901 C 26.69023,33.931537 27.468224,33.487202 28.308071,32.832893 C 29.14791,32.178609 29.724081,31.415264 30.036587,30.542854 L 32.263149,30.542854 L 32.263149,44.917854 z M 44.892056,42.369026 L 44.892056,44.917854 L 35.272915,44.917854 C 35.377081,43.954314 35.689581,43.041229 36.210415,42.178596 C 36.731246,41.31597 37.759891,40.171765 39.296352,38.745979 C 40.533326,37.593643 41.291789,36.812394 41.571743,36.402229 C 41.94934,35.835832 42.138142,35.275937 42.138149,34.722542 C 42.138142,34.110573 41.973754,33.640196 41.644985,33.311409 C 41.316203,32.982645 40.862102,32.818257 40.282681,32.818245 C 39.709759,32.818257 39.25403,32.990783 38.915493,33.335823 C 38.576948,33.680886 38.381635,34.253802 38.329556,35.054573 L 35.595181,34.781136 C 35.75794,33.270731 36.269007,32.186747 37.128384,31.529182 C 37.987755,30.871644 39.061973,30.542869 40.35104,30.542854 C 41.763793,30.542869 42.873818,30.923728 43.681118,31.685432 C 44.4884,32.447164 44.892045,33.394428 44.892056,34.527229 C 44.892045,35.17177 44.776486,35.785376 44.545376,36.36805 C 44.314246,36.95074 43.948036,37.561091 43.446743,38.199104 C 43.114703,38.622288 42.515746,39.231011 41.649868,40.025276 C 40.783977,40.819551 40.235475,41.346894 40.00436,41.607307 C 39.773235,41.867727 39.586061,42.121633 39.442837,42.369026 L 44.892056,42.369026 z"
       id="text2393"
       style="font-size:20px;font-style:normal;font-variant:normal;font-weight:bold;font-stretch:normal;text-indent:0;text-align:start;text-decoration:none;line-height:80.00000119%;letter-spacing:normal;word-spacing:normal;text-transform:none;direction:ltr;block-progression:tb;writing-mode:lr-tb;text-anchor:start;fill:#000000;fill-opacity:1;fill-rule:nonzero;stroke:none;stroke-width:0.99999994px;marker:none;visibility:visible;display:inline;overflow:visible;enable-background:accumulate;font-family:Arial;-inkscape-font-specification:Arial Bold" />
    <path
       d="M 27.044643,46.389244 L 27.273159,46.389244 L 27.273159,46.272057 C 27.273159,46.141199 27.287075,46.043543 27.314907,45.979088 C 27.342739,45.914637 27.394008,45.862147 27.468716,45.821617 C 27.543422,45.781092 27.637904,45.760828 27.752163,45.760826 C 27.86935,45.760828 27.984096,45.778406 28.096401,45.81356 L 28.040737,46.10067 C 27.975306,46.085047 27.912318,46.077234 27.851772,46.077232 C 27.792201,46.077234 27.749477,46.09115 27.723598,46.11898 C 27.697719,46.146814 27.684779,46.200281 27.68478,46.279381 L 27.68478,46.389244 L 27.992397,46.389244 L 27.992397,46.712975 L 27.68478,46.712975 L 27.68478,47.944908 L 27.273159,47.944908 L 27.273159,46.712975 L 27.044643,46.712975 L 27.044643,46.389244 z M 28.620815,47.944908 L 28.209194,47.944908 L 28.209194,46.389244 L 28.591518,46.389244 L 28.591518,46.610435 C 28.656947,46.505945 28.715785,46.437097 28.768032,46.403893 C 28.820277,46.370691 28.879603,46.354089 28.946011,46.354088 C 29.03976,46.354089 29.130092,46.379968 29.217007,46.431725 L 29.089565,46.790611 C 29.020228,46.745691 28.955775,46.72323 28.896206,46.723228 C 28.838588,46.72323 28.78976,46.739099 28.749722,46.770836 C 28.709682,46.802575 28.678188,46.859948 28.655239,46.942955 C 28.632289,47.025964 28.620815,47.199792 28.620815,47.464439 L 28.620815,47.944908 z M 30.293667,47.449791 L 30.703823,47.518639 C 30.651087,47.66903 30.567835,47.783531 30.454067,47.862144 C 30.340297,47.940758 30.197963,47.980064 30.027065,47.980064 C 29.756557,47.980064 29.556362,47.891686 29.426479,47.714928 C 29.32394,47.573326 29.272671,47.394616 29.272671,47.178795 C 29.272671,46.920983 29.340053,46.719079 29.474819,46.573082 C 29.609584,46.427087 29.779994,46.354089 29.98605,46.354088 C 30.217494,46.354089 30.400111,46.430505 30.533901,46.583336 C 30.667689,46.736169 30.731654,46.9703 30.725796,47.285728 L 29.694546,47.285728 C 29.697475,47.407799 29.730678,47.50277 29.794155,47.570641 C 29.857631,47.638512 29.936732,47.672447 30.03146,47.672447 C 30.095912,47.672447 30.150111,47.654869 30.194057,47.619713 C 30.238002,47.584557 30.271205,47.527916 30.293667,47.449791 L 30.293667,47.449791 z M 30.317104,47.033775 C 30.314174,46.914636 30.283412,46.82406 30.224819,46.762047 C 30.166224,46.700036 30.094935,46.669031 30.010952,46.669029 C 29.921108,46.669031 29.846889,46.701745 29.788296,46.767174 C 29.729701,46.832605 29.700893,46.921472 29.70187,47.033775 L 30.317104,47.033775 z M 31.06271,46.178307 L 31.06271,45.797447 L 31.474331,45.797447 L 31.474331,46.178307 L 31.06271,46.178307 z M 31.06271,47.944908 L 31.06271,46.389244 L 31.474331,46.389244 L 31.474331,47.944908 L 31.06271,47.944908 z M 31.856655,48.047447 L 32.32687,48.104576 C 32.334682,48.159263 32.352748,48.196861 32.381069,48.217369 C 32.420131,48.246666 32.481654,48.261314 32.565639,48.261314 C 32.67306,48.261314 32.753627,48.245201 32.807339,48.212975 C 32.84347,48.19149 32.870814,48.156822 32.88937,48.108971 C 32.902064,48.074791 32.908412,48.011803 32.908413,47.920006 L 32.908413,47.692955 C 32.785365,47.860924 32.630092,47.944908 32.442593,47.944908 C 32.233608,47.944908 32.068081,47.856529 31.946011,47.679771 C 31.850307,47.540123 31.802456,47.366295 31.802456,47.158287 C 31.802456,46.897546 31.8652,46.698327 31.990688,46.560631 C 32.116176,46.422937 32.272182,46.354089 32.458706,46.354088 C 32.651088,46.354089 32.809779,46.438562 32.93478,46.607506 L 32.93478,46.389244 L 33.320034,46.389244 L 33.320034,47.78524 C 33.320032,47.968834 33.304896,48.106041 33.274624,48.196861 C 33.244349,48.287681 33.201868,48.35897 33.147182,48.410728 C 33.092494,48.462486 33.019496,48.503013 32.928188,48.53231 C 32.836879,48.561607 32.7214,48.576255 32.581753,48.576256 C 32.31808,48.576255 32.131069,48.531089 32.020718,48.440758 C 31.910366,48.350425 31.85519,48.235923 31.85519,48.097252 C 31.85519,48.08358 31.855678,48.066978 31.856655,48.047447 L 31.856655,48.047447 z M 32.224331,47.13485 C 32.22433,47.299889 32.256313,47.420739 32.320278,47.497398 C 32.384242,47.574059 32.4631,47.612389 32.55685,47.612389 C 32.657435,47.612389 32.742396,47.573082 32.811733,47.494469 C 32.881068,47.415856 32.915736,47.299401 32.915737,47.145103 C 32.915736,46.983972 32.882533,46.864343 32.816128,46.786217 C 32.74972,46.708093 32.665736,46.669031 32.564175,46.669029 C 32.465541,46.669031 32.384242,46.707361 32.320278,46.784019 C 32.256313,46.860681 32.22433,46.977624 32.224331,47.13485 L 32.224331,47.13485 z M 34.629604,47.449791 L 35.039761,47.518639 C 34.987025,47.66903 34.903773,47.783531 34.790005,47.862144 C 34.676234,47.940758 34.5339,47.980064 34.363003,47.980064 C 34.092494,47.980064 33.892299,47.891686 33.762417,47.714928 C 33.659878,47.573326 33.608608,47.394616 33.608608,47.178795 C 33.608608,46.920983 33.675991,46.719079 33.810757,46.573082 C 33.945522,46.427087 34.115932,46.354089 34.321987,46.354088 C 34.553431,46.354089 34.736048,46.430505 34.869839,46.583336 C 35.003626,46.736169 35.067591,46.9703 35.061733,47.285728 L 34.030483,47.285728 C 34.033412,47.407799 34.066616,47.50277 34.130093,47.570641 C 34.193569,47.638512 34.27267,47.672447 34.367397,47.672447 C 34.43185,47.672447 34.486049,47.654869 34.529995,47.619713 C 34.573939,47.584557 34.607142,47.527916 34.629604,47.449791 L 34.629604,47.449791 z M 34.653042,47.033775 C 34.650111,46.914636 34.619349,46.82406 34.560757,46.762047 C 34.502162,46.700036 34.430873,46.669031 34.346889,46.669029 C 34.257045,46.669031 34.182826,46.701745 34.124233,46.767174 C 34.065639,46.832605 34.03683,46.921472 34.037807,47.033775 L 34.653042,47.033775 z M 35.360561,48.047447 L 35.830776,48.104576 C 35.838588,48.159263 35.856654,48.196861 35.884975,48.217369 C 35.924037,48.246666 35.985561,48.261314 36.069546,48.261314 C 36.176967,48.261314 36.257533,48.245201 36.311245,48.212975 C 36.347377,48.19149 36.37472,48.156822 36.393276,48.108971 C 36.40597,48.074791 36.412318,48.011803 36.412319,47.920006 L 36.412319,47.692955 C 36.289271,47.860924 36.133998,47.944908 35.946499,47.944908 C 35.737514,47.944908 35.571987,47.856529 35.449917,47.679771 C 35.354214,47.540123 35.306362,47.366295 35.306362,47.158287 C 35.306362,46.897546 35.369106,46.698327 35.494595,46.560631 C 35.620082,46.422937 35.776088,46.354089 35.962612,46.354088 C 36.154994,46.354089 36.313685,46.438562 36.438686,46.607506 L 36.438686,46.389244 L 36.82394,46.389244 L 36.82394,47.78524 C 36.823939,47.968834 36.808802,48.106041 36.77853,48.196861 C 36.748255,48.287681 36.705775,48.35897 36.651089,48.410728 C 36.5964,48.462486 36.523402,48.503013 36.432095,48.53231 C 36.340785,48.561607 36.225306,48.576255 36.085659,48.576256 C 35.821987,48.576255 35.634975,48.531089 35.524624,48.440758 C 35.414272,48.350425 35.359096,48.235923 35.359097,48.097252 C 35.359096,48.08358 35.359585,48.066978 35.360561,48.047447 L 35.360561,48.047447 z M 35.728237,47.13485 C 35.728237,47.299889 35.760219,47.420739 35.824184,47.497398 C 35.888149,47.574059 35.967006,47.612389 36.060757,47.612389 C 36.161342,47.612389 36.246302,47.573082 36.315639,47.494469 C 36.384974,47.415856 36.419642,47.299401 36.419643,47.145103 C 36.419642,46.983972 36.386439,46.864343 36.320034,46.786217 C 36.253627,46.708093 36.169642,46.669031 36.068081,46.669029 C 35.969447,46.669031 35.888149,46.707361 35.824184,46.784019 C 35.760219,46.860681 35.728237,46.977624 35.728237,47.13485 L 35.728237,47.13485 z M 38.133511,47.449791 L 38.543667,47.518639 C 38.490931,47.66903 38.407679,47.783531 38.293911,47.862144 C 38.18014,47.940758 38.037806,47.980064 37.866909,47.980064 C 37.596401,47.980064 37.396206,47.891686 37.266323,47.714928 C 37.163784,47.573326 37.112514,47.394616 37.112514,47.178795 C 37.112514,46.920983 37.179897,46.719079 37.314663,46.573082 C 37.449428,46.427087 37.619838,46.354089 37.825893,46.354088 C 38.057338,46.354089 38.239955,46.430505 38.373745,46.583336 C 38.507533,46.736169 38.571497,46.9703 38.565639,47.285728 L 37.534389,47.285728 C 37.537319,47.407799 37.570522,47.50277 37.633999,47.570641 C 37.697475,47.638512 37.776576,47.672447 37.871304,47.672447 C 37.935756,47.672447 37.989955,47.654869 38.033901,47.619713 C 38.077845,47.584557 38.111049,47.527916 38.133511,47.449791 L 38.133511,47.449791 z M 38.156948,47.033775 C 38.154017,46.914636 38.123256,46.82406 38.064663,46.762047 C 38.006068,46.700036 37.934779,46.669031 37.850796,46.669029 C 37.760951,46.669031 37.686733,46.701745 37.628139,46.767174 C 37.569545,46.832605 37.540737,46.921472 37.541714,47.033775 L 38.156948,47.033775 z M 38.884975,47.944908 L 38.884975,45.797447 L 39.296597,45.797447 L 39.296597,46.570885 C 39.423549,46.426355 39.573939,46.354089 39.747768,46.354088 C 39.93722,46.354089 40.093958,46.422693 40.217983,46.559898 C 40.342005,46.697107 40.404017,46.894128 40.404018,47.150963 C 40.404017,47.416588 40.340784,47.621178 40.214321,47.764732 C 40.087855,47.908287 39.934291,47.980064 39.753628,47.980064 C 39.66476,47.980064 39.577113,47.957848 39.490688,47.913414 C 39.404262,47.86898 39.329799,47.803307 39.2673,47.716393 L 39.2673,47.944908 L 38.884975,47.944908 z M 39.293667,47.133385 C 39.293666,47.294518 39.319057,47.413659 39.369839,47.490807 C 39.441127,47.600182 39.535853,47.654869 39.654018,47.654869 C 39.744838,47.654869 39.82223,47.616051 39.886196,47.538414 C 39.95016,47.460778 39.982142,47.338463 39.982143,47.171471 C 39.982142,46.993737 39.949916,46.865564 39.885464,46.786949 C 39.821009,46.708337 39.73849,46.669031 39.637905,46.669029 C 39.539271,46.669031 39.45724,46.707361 39.391811,46.784019 C 39.326381,46.860681 39.293666,46.977136 39.293667,47.133385 L 39.293667,47.133385 z M 41.637417,47.449791 L 42.047573,47.518639 C 41.994837,47.66903 41.911585,47.783531 41.797817,47.862144 C 41.684047,47.940758 41.541713,47.980064 41.370815,47.980064 C 41.100307,47.980064 40.900112,47.891686 40.770229,47.714928 C 40.66769,47.573326 40.616421,47.394616 40.616421,47.178795 C 40.616421,46.920983 40.683803,46.719079 40.818569,46.573082 C 40.953334,46.427087 41.123744,46.354089 41.3298,46.354088 C 41.561244,46.354089 41.743861,46.430505 41.877651,46.583336 C 42.011439,46.736169 42.075404,46.9703 42.069546,47.285728 L 41.038296,47.285728 C 41.041225,47.407799 41.074428,47.50277 41.137905,47.570641 C 41.201381,47.638512 41.280482,47.672447 41.37521,47.672447 C 41.439662,47.672447 41.493861,47.654869 41.537807,47.619713 C 41.581752,47.584557 41.614955,47.527916 41.637417,47.449791 L 41.637417,47.449791 z M 41.660854,47.033775 C 41.657924,46.914636 41.627162,46.82406 41.568569,46.762047 C 41.509974,46.700036 41.438685,46.669031 41.354702,46.669029 C 41.264858,46.669031 41.190639,46.701745 41.132046,46.767174 C 41.073451,46.832605 41.044643,46.921472 41.04562,47.033775 L 41.660854,47.033775 z M 43.821499,47.944908 L 43.409878,47.944908 L 43.409878,47.150963 C 43.409877,46.982995 43.401088,46.874353 43.383511,46.825035 C 43.365931,46.77572 43.337367,46.73739 43.297817,46.710045 C 43.258265,46.682702 43.210658,46.669031 43.154995,46.669029 C 43.083705,46.669031 43.01974,46.688562 42.9631,46.727623 C 42.906459,46.766687 42.867641,46.818444 42.846645,46.882896 C 42.825649,46.947351 42.815151,47.066491 42.815151,47.240318 L 42.815151,47.944908 L 42.40353,47.944908 L 42.40353,46.389244 L 42.785854,46.389244 L 42.785854,46.61776 C 42.921596,46.44198 43.092494,46.354089 43.29855,46.354088 C 43.389369,46.354089 43.472376,46.370447 43.547573,46.40316 C 43.622767,46.435876 43.679652,46.477624 43.718227,46.528404 C 43.7568,46.579187 43.783655,46.636804 43.798794,46.701256 C 43.813929,46.76571 43.821497,46.857995 43.821499,46.978111 L 43.821499,47.944908 z"
       id="text2397"
       style="font-size:3px;font-style:normal;font-variant:normal;font-weight:bold;font-stretch:normal;text-indent:0;text-align:start;text-decoration:none;line-height:125%;letter-spacing:normal;word-spacing:normal;text-transform:none;direction:ltr;block-progression:tb;writing-mode:lr-tb;text-anchor:start;fill:#000000;fill-opacity:1;fill-rule:nonzero;stroke:none;stroke-width:0.99999994px;marker:none;visibility:visible;display:inline;overflow:visible;enable-background:accumulate;font-family:Arial;-inkscape-font-specification:Arial Bold" />
  </g>
</svg>
